<mxfile host="app.diagrams.net" modified="2024-05-02T15:17:24.300Z" agent="Mozilla/5.0 (Windows NT 10.0; Win64; x64) AppleWebKit/537.36 (KHTML, like Gecko) Chrome/122.0.0.0 YaBrowser/24.4.0.0 Safari/537.36" etag="ipfAtO8e_35IO_bJNWRK" version="24.3.1" type="device">
  <diagram id="prtHgNgQTEPvFCAcTncT" name="Page-1">
    <mxGraphModel dx="1936" dy="641" grid="1" gridSize="10" guides="1" tooltips="1" connect="1" arrows="1" fold="1" page="1" pageScale="1" pageWidth="827" pageHeight="1169" math="0" shadow="0">
      <root>
        <mxCell id="0" />
        <mxCell id="1" parent="0" />
        <mxCell id="xo_PhGCv_USejeFK7Dve-10" style="edgeStyle=orthogonalEdgeStyle;rounded=0;orthogonalLoop=1;jettySize=auto;html=1;entryX=0.5;entryY=0;entryDx=0;entryDy=0;" edge="1" parent="1" source="xo_PhGCv_USejeFK7Dve-1" target="xo_PhGCv_USejeFK7Dve-7">
          <mxGeometry relative="1" as="geometry">
            <Array as="points">
              <mxPoint x="320" y="150" />
              <mxPoint x="220" y="150" />
            </Array>
          </mxGeometry>
        </mxCell>
        <mxCell id="xo_PhGCv_USejeFK7Dve-11" style="edgeStyle=orthogonalEdgeStyle;rounded=0;orthogonalLoop=1;jettySize=auto;html=1;" edge="1" parent="1" source="xo_PhGCv_USejeFK7Dve-1" target="xo_PhGCv_USejeFK7Dve-6">
          <mxGeometry relative="1" as="geometry">
            <Array as="points">
              <mxPoint x="320" y="150" />
              <mxPoint x="410" y="150" />
            </Array>
          </mxGeometry>
        </mxCell>
        <mxCell id="xo_PhGCv_USejeFK7Dve-12" style="edgeStyle=orthogonalEdgeStyle;rounded=0;orthogonalLoop=1;jettySize=auto;html=1;" edge="1" parent="1" source="xo_PhGCv_USejeFK7Dve-1" target="xo_PhGCv_USejeFK7Dve-5">
          <mxGeometry relative="1" as="geometry">
            <Array as="points">
              <mxPoint x="320" y="150" />
              <mxPoint x="640" y="150" />
            </Array>
          </mxGeometry>
        </mxCell>
        <mxCell id="xo_PhGCv_USejeFK7Dve-13" style="edgeStyle=orthogonalEdgeStyle;rounded=0;orthogonalLoop=1;jettySize=auto;html=1;entryX=0.5;entryY=0;entryDx=0;entryDy=0;" edge="1" parent="1" source="xo_PhGCv_USejeFK7Dve-1" target="xo_PhGCv_USejeFK7Dve-8">
          <mxGeometry relative="1" as="geometry">
            <Array as="points">
              <mxPoint x="320" y="150" />
              <mxPoint x="40" y="150" />
            </Array>
          </mxGeometry>
        </mxCell>
        <mxCell id="xo_PhGCv_USejeFK7Dve-1" value="Генеральный директор" style="rounded=0;whiteSpace=wrap;html=1;" vertex="1" parent="1">
          <mxGeometry x="260" y="40" width="120" height="60" as="geometry" />
        </mxCell>
        <mxCell id="xo_PhGCv_USejeFK7Dve-31" style="edgeStyle=orthogonalEdgeStyle;rounded=0;orthogonalLoop=1;jettySize=auto;html=1;entryX=0;entryY=0.5;entryDx=0;entryDy=0;" edge="1" parent="1" source="xo_PhGCv_USejeFK7Dve-2" target="xo_PhGCv_USejeFK7Dve-27">
          <mxGeometry relative="1" as="geometry" />
        </mxCell>
        <mxCell id="xo_PhGCv_USejeFK7Dve-32" style="edgeStyle=orthogonalEdgeStyle;rounded=0;orthogonalLoop=1;jettySize=auto;html=1;entryX=0;entryY=0.5;entryDx=0;entryDy=0;" edge="1" parent="1" source="xo_PhGCv_USejeFK7Dve-2" target="xo_PhGCv_USejeFK7Dve-28">
          <mxGeometry relative="1" as="geometry" />
        </mxCell>
        <mxCell id="xo_PhGCv_USejeFK7Dve-33" style="edgeStyle=orthogonalEdgeStyle;rounded=0;orthogonalLoop=1;jettySize=auto;html=1;entryX=0;entryY=0.5;entryDx=0;entryDy=0;" edge="1" parent="1" source="xo_PhGCv_USejeFK7Dve-2" target="xo_PhGCv_USejeFK7Dve-29">
          <mxGeometry relative="1" as="geometry" />
        </mxCell>
        <mxCell id="xo_PhGCv_USejeFK7Dve-41" style="edgeStyle=orthogonalEdgeStyle;rounded=0;orthogonalLoop=1;jettySize=auto;html=1;entryX=1;entryY=0.5;entryDx=0;entryDy=0;" edge="1" parent="1" source="xo_PhGCv_USejeFK7Dve-2" target="xo_PhGCv_USejeFK7Dve-40">
          <mxGeometry relative="1" as="geometry" />
        </mxCell>
        <mxCell id="xo_PhGCv_USejeFK7Dve-2" value="Главный разработчик" style="rounded=0;whiteSpace=wrap;html=1;" vertex="1" parent="1">
          <mxGeometry x="160" y="280" width="120" height="60" as="geometry" />
        </mxCell>
        <mxCell id="xo_PhGCv_USejeFK7Dve-25" style="edgeStyle=orthogonalEdgeStyle;rounded=0;orthogonalLoop=1;jettySize=auto;html=1;entryX=0;entryY=0.5;entryDx=0;entryDy=0;" edge="1" parent="1" source="xo_PhGCv_USejeFK7Dve-3" target="xo_PhGCv_USejeFK7Dve-23">
          <mxGeometry relative="1" as="geometry" />
        </mxCell>
        <mxCell id="xo_PhGCv_USejeFK7Dve-26" style="edgeStyle=orthogonalEdgeStyle;rounded=0;orthogonalLoop=1;jettySize=auto;html=1;entryX=0;entryY=0.5;entryDx=0;entryDy=0;" edge="1" parent="1" source="xo_PhGCv_USejeFK7Dve-3" target="xo_PhGCv_USejeFK7Dve-24">
          <mxGeometry relative="1" as="geometry" />
        </mxCell>
        <mxCell id="xo_PhGCv_USejeFK7Dve-3" value="Главный по обратной связи" style="rounded=0;whiteSpace=wrap;html=1;" vertex="1" parent="1">
          <mxGeometry x="350" y="280" width="120" height="60" as="geometry" />
        </mxCell>
        <mxCell id="xo_PhGCv_USejeFK7Dve-21" style="edgeStyle=orthogonalEdgeStyle;rounded=0;orthogonalLoop=1;jettySize=auto;html=1;entryX=0;entryY=0.5;entryDx=0;entryDy=0;" edge="1" parent="1" source="xo_PhGCv_USejeFK7Dve-4" target="xo_PhGCv_USejeFK7Dve-18">
          <mxGeometry relative="1" as="geometry" />
        </mxCell>
        <mxCell id="xo_PhGCv_USejeFK7Dve-22" style="edgeStyle=orthogonalEdgeStyle;rounded=0;orthogonalLoop=1;jettySize=auto;html=1;entryX=0;entryY=0.5;entryDx=0;entryDy=0;" edge="1" parent="1" source="xo_PhGCv_USejeFK7Dve-4" target="xo_PhGCv_USejeFK7Dve-19">
          <mxGeometry relative="1" as="geometry" />
        </mxCell>
        <mxCell id="xo_PhGCv_USejeFK7Dve-4" value="Главный редактор" style="rounded=0;whiteSpace=wrap;html=1;" vertex="1" parent="1">
          <mxGeometry x="580" y="280" width="120" height="60" as="geometry" />
        </mxCell>
        <mxCell id="xo_PhGCv_USejeFK7Dve-17" style="edgeStyle=orthogonalEdgeStyle;rounded=0;orthogonalLoop=1;jettySize=auto;html=1;" edge="1" parent="1" source="xo_PhGCv_USejeFK7Dve-5" target="xo_PhGCv_USejeFK7Dve-4">
          <mxGeometry relative="1" as="geometry" />
        </mxCell>
        <mxCell id="xo_PhGCv_USejeFK7Dve-5" value="Отдел редактирования сайта" style="rounded=0;whiteSpace=wrap;html=1;" vertex="1" parent="1">
          <mxGeometry x="580" y="190" width="120" height="60" as="geometry" />
        </mxCell>
        <mxCell id="xo_PhGCv_USejeFK7Dve-16" style="edgeStyle=orthogonalEdgeStyle;rounded=0;orthogonalLoop=1;jettySize=auto;html=1;entryX=0.5;entryY=0;entryDx=0;entryDy=0;" edge="1" parent="1" source="xo_PhGCv_USejeFK7Dve-6" target="xo_PhGCv_USejeFK7Dve-3">
          <mxGeometry relative="1" as="geometry" />
        </mxCell>
        <mxCell id="xo_PhGCv_USejeFK7Dve-6" value="Отдел связи с пользователями" style="rounded=0;whiteSpace=wrap;html=1;" vertex="1" parent="1">
          <mxGeometry x="350" y="190" width="120" height="60" as="geometry" />
        </mxCell>
        <mxCell id="xo_PhGCv_USejeFK7Dve-15" style="edgeStyle=orthogonalEdgeStyle;rounded=0;orthogonalLoop=1;jettySize=auto;html=1;entryX=0.5;entryY=0;entryDx=0;entryDy=0;" edge="1" parent="1" source="xo_PhGCv_USejeFK7Dve-7" target="xo_PhGCv_USejeFK7Dve-2">
          <mxGeometry relative="1" as="geometry" />
        </mxCell>
        <mxCell id="xo_PhGCv_USejeFK7Dve-7" value="Отдел разработки" style="rounded=0;whiteSpace=wrap;html=1;" vertex="1" parent="1">
          <mxGeometry x="160" y="190" width="120" height="60" as="geometry" />
        </mxCell>
        <mxCell id="xo_PhGCv_USejeFK7Dve-14" style="edgeStyle=orthogonalEdgeStyle;rounded=0;orthogonalLoop=1;jettySize=auto;html=1;entryX=0.5;entryY=0;entryDx=0;entryDy=0;" edge="1" parent="1" source="xo_PhGCv_USejeFK7Dve-8" target="xo_PhGCv_USejeFK7Dve-9">
          <mxGeometry relative="1" as="geometry" />
        </mxCell>
        <mxCell id="xo_PhGCv_USejeFK7Dve-8" value="Отдел дизайна" style="rounded=0;whiteSpace=wrap;html=1;" vertex="1" parent="1">
          <mxGeometry x="-20" y="190" width="120" height="60" as="geometry" />
        </mxCell>
        <mxCell id="xo_PhGCv_USejeFK7Dve-37" style="edgeStyle=orthogonalEdgeStyle;rounded=0;orthogonalLoop=1;jettySize=auto;html=1;entryX=0;entryY=0.5;entryDx=0;entryDy=0;" edge="1" parent="1" source="xo_PhGCv_USejeFK7Dve-9" target="xo_PhGCv_USejeFK7Dve-34">
          <mxGeometry relative="1" as="geometry" />
        </mxCell>
        <mxCell id="xo_PhGCv_USejeFK7Dve-38" style="edgeStyle=orthogonalEdgeStyle;rounded=0;orthogonalLoop=1;jettySize=auto;html=1;entryX=0;entryY=0.5;entryDx=0;entryDy=0;" edge="1" parent="1" source="xo_PhGCv_USejeFK7Dve-9" target="xo_PhGCv_USejeFK7Dve-35">
          <mxGeometry relative="1" as="geometry" />
        </mxCell>
        <mxCell id="xo_PhGCv_USejeFK7Dve-9" value="Главный дизанер" style="rounded=0;whiteSpace=wrap;html=1;" vertex="1" parent="1">
          <mxGeometry x="-20" y="280" width="120" height="60" as="geometry" />
        </mxCell>
        <mxCell id="xo_PhGCv_USejeFK7Dve-18" value="Редакторы информации на страницах" style="rounded=0;whiteSpace=wrap;html=1;" vertex="1" parent="1">
          <mxGeometry x="660" y="360" width="120" height="60" as="geometry" />
        </mxCell>
        <mxCell id="xo_PhGCv_USejeFK7Dve-19" value="Редакторы новостных блоков" style="rounded=0;whiteSpace=wrap;html=1;" vertex="1" parent="1">
          <mxGeometry x="660" y="450" width="120" height="60" as="geometry" />
        </mxCell>
        <mxCell id="xo_PhGCv_USejeFK7Dve-23" value="Менеджеры отвечающие на вопросы обычных пользователей" style="rounded=0;whiteSpace=wrap;html=1;" vertex="1" parent="1">
          <mxGeometry x="430" y="360" width="120" height="60" as="geometry" />
        </mxCell>
        <mxCell id="xo_PhGCv_USejeFK7Dve-24" value="Менеджеры отвечающие на вопросы композиторов" style="rounded=0;whiteSpace=wrap;html=1;" vertex="1" parent="1">
          <mxGeometry x="430" y="450" width="120" height="60" as="geometry" />
        </mxCell>
        <mxCell id="xo_PhGCv_USejeFK7Dve-27" value="Front-end разработчики" style="rounded=0;whiteSpace=wrap;html=1;" vertex="1" parent="1">
          <mxGeometry x="240" y="360" width="120" height="60" as="geometry" />
        </mxCell>
        <mxCell id="xo_PhGCv_USejeFK7Dve-28" value="back-end разработчики" style="rounded=0;whiteSpace=wrap;html=1;" vertex="1" parent="1">
          <mxGeometry x="240" y="440" width="120" height="60" as="geometry" />
        </mxCell>
        <mxCell id="xo_PhGCv_USejeFK7Dve-29" value="Разработчики баз данных" style="rounded=0;whiteSpace=wrap;html=1;" vertex="1" parent="1">
          <mxGeometry x="240" y="520" width="120" height="60" as="geometry" />
        </mxCell>
        <mxCell id="xo_PhGCv_USejeFK7Dve-34" value="Дизайнеры сайта" style="rounded=0;whiteSpace=wrap;html=1;" vertex="1" parent="1">
          <mxGeometry x="60" y="360" width="120" height="60" as="geometry" />
        </mxCell>
        <mxCell id="xo_PhGCv_USejeFK7Dve-35" value="Дизайнеры адаптивного сайта и приложения" style="rounded=0;whiteSpace=wrap;html=1;" vertex="1" parent="1">
          <mxGeometry x="60" y="440" width="120" height="60" as="geometry" />
        </mxCell>
        <mxCell id="xo_PhGCv_USejeFK7Dve-36" value="Дизайнеры баз данных" style="rounded=0;whiteSpace=wrap;html=1;" vertex="1" parent="1">
          <mxGeometry x="60" y="520" width="120" height="60" as="geometry" />
        </mxCell>
        <mxCell id="xo_PhGCv_USejeFK7Dve-39" style="edgeStyle=orthogonalEdgeStyle;rounded=0;orthogonalLoop=1;jettySize=auto;html=1;entryX=-0.007;entryY=0.597;entryDx=0;entryDy=0;entryPerimeter=0;" edge="1" parent="1" source="xo_PhGCv_USejeFK7Dve-9" target="xo_PhGCv_USejeFK7Dve-36">
          <mxGeometry relative="1" as="geometry" />
        </mxCell>
        <mxCell id="xo_PhGCv_USejeFK7Dve-40" value="Тестировщики" style="rounded=0;whiteSpace=wrap;html=1;" vertex="1" parent="1">
          <mxGeometry x="80" y="600" width="120" height="60" as="geometry" />
        </mxCell>
      </root>
    </mxGraphModel>
  </diagram>
</mxfile>
